<svg xmlns="http://www.w3.org/2000/svg" version="1.1" xmlns:xlink="http://www.w3.org/1999/xlink" xmlns:svgjs="http://svgjs.dev/svgjs" width="1500" height="1500" viewBox="0 0 1500 1500"><rect width="1500" height="1500" fill="#f0eadc"></rect><g transform="matrix(0.6666666666666666,0,0,0.6666666666666666,250.10666666666668,530.1253333333333)"><svg viewBox="0 0 375 165" data-background-color="#f0eadc" preserveAspectRatio="xMidYMid meet" height="660" width="1500" xmlns="http://www.w3.org/2000/svg" xmlns:xlink="http://www.w3.org/1999/xlink"><g id="tight-bounds" transform="matrix(1,0,0,1,-0.03976000000000113,-0.04694000000000642)"><svg viewBox="0 0 375.07953 165.09377" height="165.09377" width="375.07953"><g><svg></svg></g><g><svg viewBox="0 0 375.07953 165.09377" height="165.09377" width="375.07953"><g transform="matrix(1,0,0,1,-10.22024,-45.69005999999999)"><path d="M10.22 201.51v-155.82h375.08v155.82h-20.671l0-5.242h15.429v-145.336h-364.596v145.336l132.643 0 0 5.242z" fill="#2ea673" fill-rule="nonzero" stroke="none" stroke-width="1" stroke-linecap="butt" stroke-linejoin="miter" stroke-miterlimit="10" stroke-dasharray="" stroke-dashoffset="0" font-family="none" font-weight="none" font-size="none" text-anchor="none" style="mix-blend-mode: normal" data-fill-palette-color="tertiary"></path><g><path d="M181.279 193.02h-2.437v-3.72h-15.012v-2.201h17.449zM173.445 205.072h-9.615v-2.2h9.615zM169.882 203.841h-2.673v-15.484h2.673zM175.226 197.343h-6.838v-2.017h6.838zM176.17 199.78h-2.096v-6.891h2.096zM194.116 205.282v0c-0.507 0-0.961-0.128-1.362-0.383-0.402-0.252-0.72-0.622-0.954-1.111-0.238-0.489-0.356-1.074-0.356-1.755v0-4.847c0-0.629-0.148-1.132-0.445-1.509-0.297-0.374-0.686-0.648-1.169-0.823-0.479-0.175-1.015-0.262-1.608-0.262v0c-0.786 0-1.589 0.105-2.411 0.315-0.821 0.21-1.651 0.489-2.489 0.838v0l-0.55-2.017c0.943-0.402 1.904-0.721 2.882-0.959 0.978-0.234 1.939-0.351 2.882-0.351v0c1.118 0 2.079 0.183 2.882 0.55 0.803 0.367 1.42 0.908 1.85 1.624 0.426 0.716 0.639 1.616 0.639 2.699v0 4.533c0 0.454 0.079 0.781 0.236 0.979 0.157 0.203 0.376 0.304 0.655 0.304v0c0.157 0 0.306-0.026 0.445-0.078 0.14-0.052 0.262-0.096 0.367-0.131v0l0.55 1.86c-0.192 0.122-0.466 0.241-0.823 0.356-0.36 0.112-0.767 0.168-1.221 0.168zM186.361 205.439v0c-0.769 0-1.485-0.148-2.148-0.445-0.664-0.297-1.191-0.739-1.582-1.326-0.395-0.583-0.592-1.303-0.593-2.159v0c0-0.873 0.25-1.612 0.75-2.216 0.496-0.601 1.137-1.055 1.923-1.363 0.786-0.304 1.624-0.456 2.515-0.456v0c1.031 0 1.93 0.117 2.698 0.351 0.769 0.238 1.563 0.531 2.385 0.881v0 1.677c-0.926-0.402-1.768-0.669-2.526-0.802-0.762-0.129-1.465-0.194-2.112-0.194v0c-0.541-0.017-1.043 0.052-1.504 0.21-0.465 0.157-0.845 0.384-1.142 0.681-0.297 0.297-0.445 0.681-0.445 1.153v0c0 0.402 0.114 0.742 0.34 1.021 0.227 0.279 0.529 0.484 0.907 0.613 0.374 0.133 0.77 0.199 1.189 0.2v0c0.454 0 0.969-0.093 1.546-0.278 0.576-0.182 1.184-0.465 1.824-0.849 0.636-0.384 1.277-0.865 1.923-1.441v0l-0.053 1.782c-0.594 0.594-1.217 1.113-1.87 1.556-0.657 0.447-1.32 0.793-1.992 1.037-0.674 0.245-1.352 0.367-2.033 0.367zM204.203 205.465v0c-0.873 0-1.706-0.154-2.499-0.461-0.796-0.304-1.514-0.741-2.154-1.31-0.636-0.566-1.137-1.256-1.504-2.07-0.367-0.81-0.55-1.705-0.55-2.682v0c0-0.943 0.161-1.813 0.482-2.61 0.325-0.793 0.776-1.483 1.352-2.07 0.576-0.583 1.24-1.038 1.991-1.362 0.751-0.321 1.546-0.482 2.385-0.482v0c0.838 0 1.555 0.126 2.148 0.377 0.594 0.255 1.113 0.613 1.556 1.074 0.447 0.465 0.828 1.029 1.142 1.693v0l-0.812-0.21v-2.62h1.86v4.323l-1.1 0.079c-0.279-0.559-0.615-1.031-1.006-1.415-0.395-0.384-0.845-0.672-1.352-0.865-0.507-0.192-1.083-0.288-1.729-0.288v0c-0.611 0-1.174 0.1-1.687 0.299-0.517 0.203-0.964 0.496-1.342 0.88-0.374 0.384-0.669 0.847-0.885 1.389-0.22 0.541-0.33 1.135-0.33 1.781v0c0 0.873 0.201 1.633 0.602 2.28 0.402 0.646 0.922 1.148 1.562 1.504 0.636 0.36 1.312 0.548 2.027 0.566v0c0.926 0.017 1.724-0.152 2.395-0.509 0.674-0.36 1.3-0.81 1.876-1.352v0l1.153 1.677c-0.716 0.664-1.532 1.226-2.447 1.687-0.919 0.465-1.963 0.697-3.134 0.697zM218.639 205.439v0c-0.856 0-1.689-0.136-2.499-0.409-0.814-0.269-1.548-0.665-2.201-1.189-0.657-0.524-1.177-1.175-1.561-1.955-0.384-0.776-0.576-1.67-0.577-2.682v0c0-1.083 0.197-2.044 0.592-2.882 0.391-0.838 0.919-1.546 1.583-2.123 0.664-0.576 1.406-1.018 2.227-1.325 0.821-0.304 1.668-0.456 2.541-0.456v0c1.048 0 1.974 0.161 2.777 0.482 0.803 0.325 1.437 0.779 1.902 1.362 0.461 0.587 0.692 1.273 0.692 2.06v0c0 0.803-0.239 1.476-0.718 2.017-0.482 0.541-1.107 0.947-1.876 1.216-0.769 0.272-1.581 0.409-2.436 0.408v0c-1.065 0-2.021-0.128-2.867-0.382-0.849-0.252-1.675-0.561-2.478-0.928v0l-0.026-1.572c0.926 0.402 1.778 0.681 2.557 0.839 0.776 0.157 1.53 0.236 2.264 0.236v0c0.559 0 1.062-0.07 1.509-0.21 0.444-0.14 0.805-0.349 1.084-0.629 0.279-0.279 0.419-0.611 0.419-0.995v0c0-0.559-0.245-1.01-0.733-1.352-0.489-0.339-1.118-0.508-1.887-0.509v0c-0.576 0-1.139 0.108-1.687 0.325-0.552 0.22-1.05 0.531-1.493 0.933-0.447 0.402-0.805 0.886-1.074 1.451-0.272 0.569-0.409 1.221-0.409 1.955v0c0 0.856 0.21 1.593 0.629 2.211 0.419 0.622 0.966 1.095 1.64 1.42 0.671 0.321 1.399 0.482 2.185 0.482v0c0.978 0 1.839-0.161 2.583-0.482 0.741-0.325 1.399-0.732 1.976-1.221v0l1.1 1.703c-0.489 0.419-1.017 0.795-1.582 1.127-0.569 0.332-1.198 0.594-1.887 0.786-0.692 0.192-1.448 0.288-2.269 0.288zM244.734 205.072h-10.663v-2.2h10.401c1.345 0 2.416-0.224 3.212-0.671 0.793-0.444 1.189-1.189 1.19-2.238v0c0-0.699-0.183-1.266-0.55-1.703-0.367-0.437-0.882-0.751-1.546-0.943-0.664-0.192-1.432-0.288-2.306-0.288v0h-5.24v-2.017h4.428c1.17 0 2.113-0.236 2.83-0.708 0.716-0.472 1.074-1.214 1.074-2.227v0c0-0.681-0.157-1.223-0.472-1.624-0.314-0.402-0.734-0.695-1.257-0.88-0.524-0.182-1.092-0.272-1.703-0.273v0h-10.061v-2.201h10.244c1.31 0 2.407 0.196 3.291 0.587 0.88 0.395 1.548 0.945 2.001 1.651 0.454 0.709 0.681 1.518 0.681 2.426v0c0 0.786-0.166 1.471-0.497 2.054-0.332 0.587-0.777 1.076-1.336 1.467-0.559 0.395-1.191 0.683-1.897 0.865-0.709 0.185-1.439 0.278-2.191 0.277v0-0.995c0.891 0 1.761 0.07 2.61 0.209 0.845 0.14 1.617 0.379 2.316 0.718 0.699 0.342 1.258 0.828 1.677 1.457 0.419 0.629 0.629 1.415 0.628 2.358v0c0 1.572-0.594 2.781-1.781 3.626-1.188 0.849-2.882 1.273-5.083 1.273zM240.123 203.841h-2.672v-15.51h2.672zM259.93 205.439v0c-0.681 0-1.284-0.114-1.808-0.341-0.524-0.227-0.969-0.568-1.336-1.021-0.367-0.454-0.646-1.018-0.838-1.693-0.192-0.671-0.288-1.451-0.289-2.342v0-7.31h2.568v7.231c0 0.454 0.049 0.868 0.147 1.242 0.094 0.377 0.243 0.706 0.445 0.985 0.199 0.279 0.465 0.493 0.797 0.64 0.332 0.15 0.734 0.225 1.205 0.225v0c0.437 0 0.882-0.096 1.336-0.288 0.454-0.192 0.917-0.463 1.389-0.812 0.472-0.349 0.943-0.782 1.414-1.3 0.472-0.514 0.934-1.085 1.389-1.713v0 2.069c-0.524 0.699-1.043 1.319-1.556 1.861-0.517 0.541-1.038 1.004-1.562 1.388-0.524 0.384-1.057 0.678-1.598 0.88-0.541 0.199-1.109 0.299-1.703 0.299zM257.703 194.802h-4.506v-2.07h4.506zM267.999 205.334v0c-0.576 0-1.083-0.122-1.519-0.367-0.437-0.245-0.772-0.606-1.006-1.084-0.238-0.482-0.356-1.072-0.357-1.771v0-9.38h2.568v9.17c0 0.454 0.084 0.782 0.252 0.985 0.164 0.199 0.377 0.299 0.639 0.299v0c0.175 0 0.323-0.017 0.445-0.052 0.122-0.035 0.245-0.087 0.367-0.158v0l0.576 1.86c-0.227 0.122-0.51 0.236-0.848 0.341-0.342 0.105-0.714 0.157-1.117 0.157zM267.318 194.802h-4.454v-2.07h4.454zM276.698 204.496h-2.594v-11.764h2.594zM279.501 205.072h-8.174v-2.069h8.174zM276.095 194.802h-4.768v-2.07h4.768zM275.073 190.034v0c-0.541 0-1.008-0.148-1.399-0.446-0.395-0.297-0.592-0.664-0.592-1.1v0c0-0.489 0.197-0.887 0.592-1.195 0.391-0.304 0.858-0.456 1.399-0.456v0c0.611 0 1.109 0.152 1.494 0.456 0.384 0.307 0.576 0.706 0.576 1.195v0c0 0.437-0.192 0.803-0.576 1.1-0.384 0.297-0.882 0.445-1.494 0.446zM285.815 204.496h-2.594v-17.397h2.594zM288.645 205.072h-8.174v-2.069h8.174zM285.658 189.169h-5.188v-2.07h5.188zM295.981 205.439v0c-1.065 0-2.052-0.267-2.961-0.802-0.908-0.531-1.637-1.277-2.185-2.237-0.552-0.961-0.828-2.07-0.828-3.327v0c0-0.996 0.162-1.895 0.487-2.699 0.321-0.803 0.779-1.502 1.373-2.096 0.594-0.594 1.28-1.053 2.06-1.378 0.776-0.321 1.609-0.482 2.499-0.482v0c0.908 0 1.712 0.166 2.41 0.498 0.699 0.332 1.315 0.742 1.85 1.231 0.531 0.489 0.997 0.978 1.399 1.467v0 1.887c-0.419-0.507-0.894-0.978-1.425-1.415-0.534-0.437-1.107-0.791-1.719-1.064-0.611-0.269-1.258-0.403-1.939-0.403v0c-0.629 0-1.205 0.108-1.729 0.325-0.524 0.22-0.982 0.522-1.373 0.906-0.395 0.384-0.697 0.851-0.906 1.399-0.21 0.552-0.314 1.151-0.314 1.797v0c0 0.838 0.166 1.575 0.497 2.212 0.332 0.639 0.8 1.134 1.405 1.483 0.601 0.349 1.277 0.515 2.027 0.497v0c0.716-0.017 1.392-0.178 2.028-0.482 0.639-0.307 1.244-0.697 1.813-1.168 0.566-0.472 1.085-0.943 1.557-1.415v0 1.991c-0.314 0.332-0.676 0.685-1.085 1.059-0.412 0.377-0.863 0.735-1.352 1.074-0.489 0.342-1.031 0.618-1.624 0.828-0.594 0.21-1.249 0.314-1.965 0.314zM303.421 205.334v0c-0.821 0-1.493-0.279-2.017-0.838-0.524-0.559-0.786-1.354-0.786-2.384v0-15.013h2.515v14.803c0 0.454 0.084 0.777 0.252 0.97 0.164 0.192 0.369 0.288 0.613 0.288v0c0.192 0 0.358-0.023 0.498-0.068 0.14-0.042 0.262-0.089 0.366-0.142v0l0.524 1.887c-0.192 0.122-0.466 0.236-0.822 0.34-0.36 0.105-0.741 0.157-1.143 0.157zM302.897 189.169h-5.056v-2.07h5.056zM312.146 204.496h-2.594v-11.764h2.594zM314.949 205.072h-8.174v-2.069h8.174zM311.543 194.802h-4.768v-2.07h4.768zM310.522 190.034v0c-0.541 0-1.008-0.148-1.4-0.446-0.395-0.297-0.592-0.664-0.592-1.1v0c0-0.489 0.197-0.887 0.592-1.195 0.391-0.304 0.858-0.456 1.4-0.456v0c0.611 0 1.109 0.152 1.493 0.456 0.384 0.307 0.576 0.706 0.576 1.195v0c0 0.437-0.192 0.803-0.576 1.1-0.384 0.297-0.882 0.445-1.493 0.446zM331.586 205.072h-2.568v-7.178c0-0.472-0.061-0.896-0.183-1.274-0.122-0.374-0.3-0.697-0.534-0.969-0.238-0.269-0.526-0.473-0.865-0.613-0.342-0.14-0.741-0.21-1.195-0.21v0c-0.472 0-0.947 0.091-1.425 0.273-0.482 0.185-0.968 0.456-1.457 0.812-0.489 0.36-0.973 0.788-1.451 1.284-0.482 0.5-0.968 1.064-1.457 1.692v0-2.096c0.559-0.681 1.106-1.293 1.64-1.834 0.531-0.541 1.064-1.004 1.598-1.388 0.531-0.384 1.081-0.672 1.651-0.865 0.566-0.192 1.163-0.288 1.792-0.288v0c0.716 0 1.35 0.108 1.902 0.325 0.548 0.22 1.011 0.557 1.389 1.011 0.374 0.454 0.662 1.017 0.864 1.687 0.199 0.674 0.299 1.465 0.299 2.374v0zM323.7 205.072h-7.624v-2.069h7.624zM321.447 205.072h-2.594v-12.34h2.594zM320.897 194.802h-4.821v-2.07h4.821zM334.023 205.072h-7.284v-2.069h7.284zM340.808 210.784v0c-1.135 0-2.157-0.148-3.065-0.446-0.908-0.297-1.628-0.716-2.159-1.257-0.534-0.541-0.802-1.196-0.802-1.965v0c0-0.541 0.136-1.022 0.409-1.441 0.269-0.419 0.596-0.782 0.98-1.09 0.384-0.304 0.751-0.552 1.1-0.744v0l1.153 0.602c-0.332 0.157-0.646 0.424-0.943 0.802-0.297 0.374-0.445 0.823-0.445 1.347v0c0 0.419 0.162 0.786 0.487 1.1 0.321 0.314 0.793 0.555 1.415 0.723 0.618 0.164 1.364 0.246 2.237 0.247v0c0.926 0 1.796-0.105 2.61-0.315 0.81-0.21 1.474-0.507 1.991-0.891 0.514-0.384 0.77-0.838 0.77-1.362v0c0-0.472-0.175-0.812-0.524-1.022-0.349-0.21-0.821-0.314-1.415-0.314v0c-0.419 0-0.842 0.03-1.268 0.089-0.43 0.063-0.872 0.133-1.325 0.21-0.454 0.08-0.929 0.152-1.426 0.214-0.5 0.059-1.038 0.089-1.614 0.089v0c-0.751 0-1.415-0.128-1.991-0.382-0.576-0.252-1.025-0.601-1.346-1.048-0.325-0.444-0.487-0.936-0.488-1.478v0c0-0.594 0.148-1.118 0.446-1.572 0.297-0.454 0.672-0.847 1.126-1.179 0.454-0.332 0.926-0.594 1.415-0.786v0l1.1 0.734c-0.314 0.157-0.611 0.349-0.89 0.576-0.279 0.227-0.501 0.475-0.666 0.744-0.168 0.272-0.252 0.566-0.251 0.881v0c0 0.297 0.079 0.555 0.235 0.775 0.157 0.217 0.384 0.381 0.682 0.493 0.297 0.115 0.655 0.173 1.074 0.173v0c0.489 0 0.961-0.026 1.415-0.079 0.454-0.052 0.908-0.119 1.362-0.199 0.454-0.077 0.922-0.141 1.404-0.194 0.479-0.052 0.997-0.079 1.556-0.078v0c0.734 0 1.38 0.122 1.939 0.366 0.559 0.245 1.001 0.603 1.326 1.075 0.321 0.472 0.482 1.057 0.482 1.755v0c0 0.751-0.213 1.429-0.639 2.033-0.43 0.601-1.024 1.107-1.782 1.52-0.762 0.409-1.626 0.727-2.594 0.953-0.971 0.227-1.998 0.341-3.081 0.341zM341.83 201.326v0c-0.681 0-1.348-0.093-2.002-0.278-0.657-0.182-1.256-0.461-1.797-0.838-0.541-0.374-0.973-0.837-1.294-1.389-0.325-0.548-0.487-1.189-0.487-1.923v0c0-0.751 0.171-1.406 0.513-1.965 0.339-0.559 0.784-1.027 1.336-1.404 0.548-0.374 1.146-0.653 1.792-0.839 0.646-0.182 1.293-0.272 1.939-0.272v0c0.681 0 1.35 0.091 2.007 0.272 0.653 0.185 1.251 0.461 1.792 0.828 0.541 0.367 0.978 0.824 1.31 1.373 0.332 0.552 0.498 1.195 0.498 1.928v0c0 0.734-0.166 1.383-0.498 1.95-0.332 0.569-0.769 1.041-1.31 1.414-0.541 0.377-1.144 0.662-1.808 0.855-0.664 0.192-1.327 0.288-1.991 0.288zM341.83 199.466v0c0.594 0 1.123-0.105 1.588-0.315 0.461-0.21 0.823-0.515 1.084-0.917 0.262-0.402 0.393-0.873 0.393-1.415v0c0-0.541-0.14-1.004-0.419-1.388-0.279-0.384-0.65-0.672-1.111-0.865-0.465-0.192-0.976-0.288-1.535-0.288v0c-0.541 0-1.048 0.105-1.519 0.314-0.472 0.21-0.847 0.507-1.127 0.891-0.279 0.384-0.419 0.856-0.419 1.415v0c0 0.541 0.14 1.004 0.419 1.389 0.279 0.384 0.655 0.676 1.127 0.875 0.472 0.203 0.978 0.304 1.519 0.304zM345.393 194.252v0l-0.891-0.76c0.14-0.559 0.337-1.044 0.593-1.457 0.252-0.409 0.561-0.749 0.927-1.021 0.367-0.269 0.782-0.479 1.247-0.629 0.461-0.147 0.954-0.229 1.478-0.247v0 2.149c-0.786 0.035-1.441 0.187-1.965 0.456-0.524 0.272-0.987 0.776-1.389 1.509z" fill="#2ea673" fill-rule="nonzero" stroke="none" stroke-width="1" stroke-linecap="butt" stroke-linejoin="miter" stroke-miterlimit="10" stroke-dasharray="" stroke-dashoffset="0" font-family="none" font-weight="none" font-size="none" text-anchor="none" style="mix-blend-mode: normal" data-fill-palette-color="secondary" id="text-1"></path></g></g><g transform="matrix(1,0,0,1,29.33176499999999,53.48561620575525)"><svg viewBox="0 0 316.416 58.12253758848951" height="58.12253758848951" width="316.416"><g><svg viewBox="0 0 316.416 58.12253758848951" height="58.12253758848951" width="316.416"><g><svg viewBox="0 0 316.416 58.12253758848951" height="58.12253758848951" width="316.416"><g><svg viewBox="0 0 316.416 58.12253758848951" height="58.12253758848951" width="316.416"><g id="textblocktransform"><svg viewBox="0 0 316.416 58.12253758848951" height="58.12253758848951" width="316.416" id="textblock"><g><svg viewBox="0 0 316.416 58.12253758848951" height="58.12253758848951" width="316.416"><g transform="matrix(1,0,0,1,0,0)"><svg width="316.416" viewBox="5.9 -28.203729260493002 159.78 29.353729260493" height="58.12253758848951" data-palette-color="#2ea673"><path d="M8 0.55L8 0.55Q7 0.3 6.45-0.73 5.9-1.75 5.9-2.8L5.9-2.8Q5.9-4.2 6.23-5.3 6.55-6.4 7-7.8L7-7.8Q7.45-9.1 7.95-10.53 8.45-11.95 8.93-13.15 9.4-14.35 9.65-14.95L9.65-14.95 8.8-20.55Q8.35-23.5 7.45-24.88 6.55-26.25 6.3-26.45L6.3-26.45Q6.6-26.55 7.13-26.68 7.65-26.8 8-26.8L8-26.8Q9.25-26.8 9.93-26 10.6-25.2 10.93-23.98 11.25-22.75 11.4-21.45L11.4-21.45 12.2-15.6Q14.2-17.6 16.13-19.65 18.05-21.7 19.63-23.58 21.2-25.45 22.15-26.9L22.15-26.9Q23.35-26.9 23.35-25.7L23.35-25.7Q23.35-24.25 22.35-22.9 21.35-21.55 20.2-20.4L20.2-20.4Q19.1-19.35 17.7-18.15 16.3-16.95 14.93-15.8 13.55-14.65 12.5-13.7L12.5-13.7Q11.8-12.1 10.98-10.18 10.15-8.25 9.47-6.38 8.8-4.5 8.4-3.1L8.4-3.1Q7.9-1.3 7.9-0.3L7.9-0.3Q7.9-0.05 7.93 0.15 7.95 0.35 8 0.55ZM26.1 0.15L26.1 0.15Q24.4 0.15 24.4-1.95L24.4-1.95Q24.4-2.95 24.75-4.28 25.1-5.6 25.7-7.15L25.7-7.15Q24.65-5.5 23.37-3.85 22.1-2.2 20.77-1.13 19.45-0.05 18.2-0.05L18.2-0.05Q16.8-0.05 16.32-0.98 15.85-1.9 15.85-3L15.85-3Q15.85-3.95 16.05-4.83 16.25-5.7 16.45-6.1L16.45-6.1Q17.2-8 18.32-10.3 19.45-12.6 20.35-14.3L20.35-14.3Q20.85-15.15 21.97-15.75 23.1-16.35 23.8-16.35L23.8-16.35Q24.55-16.35 24.55-15.85L24.55-15.85Q24.55-15.45 24.05-14.65L24.05-14.65Q23.6-14 22.8-12.63 22-11.25 21.07-9.55 20.15-7.85 19.3-6.2L19.3-6.2Q18.2-4.1 18.2-2.55L18.2-2.55Q18.2-1.3 18.95-1.3L18.95-1.3Q19.35-1.3 20-1.75 20.65-2.2 21.55-3.2L21.55-3.2Q21.95-3.6 22.77-4.8 23.6-6 24.65-7.53 25.7-9.05 26.7-10.53 27.7-12 28.35-12.95L28.35-12.95Q29.55-15.25 30.9-16.05 32.25-16.85 34.1-16.85L34.1-16.85Q33.6-16.6 32.9-15.55 32.2-14.5 31.45-13.4L31.45-13.4Q30.95-12.65 30.35-11.45 29.75-10.25 29.15-8.93 28.55-7.6 28.12-6.45 27.7-5.3 27.55-4.65L27.55-4.65Q27.3-3.55 27.3-2.9L27.3-2.9Q27.3-1.7 27.9-1.7L27.9-1.7Q28.1-1.7 28.4-1.85L28.4-1.85Q29.5-2.4 30.6-3.45 31.7-4.5 32.7-5.6L32.7-5.6Q33.2-6.15 33.65-6.65 34.1-7.15 34.5-7.7L34.5-7.7Q34.65-7.85 34.75-7.85L34.75-7.85Q35.05-7.85 35.05-7.45L35.05-7.45Q35.05-7.15 34.85-6.95L34.85-6.95Q33.8-5.65 32.65-4.3L32.65-4.3Q31.55-3.05 30.35-1.85L30.35-1.85Q29.35-0.9 28.15-0.38 26.95 0.15 26.1 0.15ZM37.2 0.35L37.2 0.35Q36.65 0.35 36.35 0.05 36.05-0.25 35.8-0.6L35.8-0.6Q35.7-0.9 35.7-1L35.7-1Q35.7-1.35 35.87-1.63 36.05-1.9 36.2-2.05L36.2-2.05Q36.55-2.3 36.95-2.58 37.35-2.85 37.8-3.05L37.8-3.05Q38.2-3.25 38.5-3.38 38.8-3.5 39.15-3.75L39.15-3.75Q39.3-3.85 39.4-3.73 39.5-3.6 39.45-3.5L39.45-3.5Q39.15-3.05 38.95-2.13 38.75-1.2 38.4-0.43 38.05 0.35 37.2 0.35ZM50.84 0.55L50.84 0.55Q49.84 0.3 49.29-0.73 48.74-1.75 48.74-2.8L48.74-2.8Q48.74-4.2 49.07-5.3 49.39-6.4 49.84-7.8L49.84-7.8Q50.29-9.1 50.79-10.53 51.29-11.95 51.77-13.15 52.24-14.35 52.49-14.95L52.49-14.95 51.64-20.55Q51.19-23.5 50.29-24.88 49.39-26.25 49.14-26.45L49.14-26.45Q49.44-26.55 49.97-26.68 50.49-26.8 50.84-26.8L50.84-26.8Q52.09-26.8 52.77-26 53.44-25.2 53.77-23.98 54.09-22.75 54.24-21.45L54.24-21.45 55.04-15.6Q57.04-17.6 58.97-19.65 60.89-21.7 62.47-23.58 64.04-25.45 64.99-26.9L64.99-26.9Q66.19-26.9 66.19-25.7L66.19-25.7Q66.19-24.25 65.19-22.9 64.19-21.55 63.04-20.4L63.04-20.4Q61.94-19.35 60.54-18.15 59.14-16.95 57.77-15.8 56.39-14.65 55.34-13.7L55.34-13.7Q54.64-12.1 53.82-10.18 52.99-8.25 52.32-6.38 51.64-4.5 51.24-3.1L51.24-3.1Q50.74-1.3 50.74-0.3L50.74-0.3Q50.74-0.05 50.77 0.15 50.79 0.35 50.84 0.55ZM68.94 0.15L68.94 0.15Q67.24 0.15 67.24-1.95L67.24-1.95Q67.24-2.95 67.59-4.28 67.94-5.6 68.54-7.15L68.54-7.15Q67.49-5.5 66.22-3.85 64.94-2.2 63.62-1.13 62.29-0.05 61.04-0.05L61.04-0.05Q59.64-0.05 59.17-0.98 58.69-1.9 58.69-3L58.69-3Q58.69-3.95 58.89-4.83 59.09-5.7 59.29-6.1L59.29-6.1Q60.04-8 61.17-10.3 62.29-12.6 63.19-14.3L63.19-14.3Q63.69-15.15 64.82-15.75 65.94-16.35 66.64-16.35L66.64-16.35Q67.39-16.35 67.39-15.85L67.39-15.85Q67.39-15.45 66.89-14.65L66.89-14.65Q66.44-14 65.64-12.63 64.84-11.25 63.92-9.55 62.99-7.85 62.14-6.2L62.14-6.2Q61.04-4.1 61.04-2.55L61.04-2.55Q61.04-1.3 61.79-1.3L61.79-1.3Q62.19-1.3 62.84-1.75 63.49-2.2 64.39-3.2L64.39-3.2Q64.79-3.6 65.62-4.8 66.44-6 67.49-7.53 68.54-9.05 69.54-10.53 70.54-12 71.19-12.95L71.19-12.95Q72.39-15.25 73.74-16.05 75.09-16.85 76.94-16.85L76.94-16.85Q76.44-16.6 75.74-15.55 75.04-14.5 74.29-13.4L74.29-13.4Q73.79-12.65 73.19-11.45 72.59-10.25 71.99-8.93 71.39-7.6 70.97-6.45 70.54-5.3 70.39-4.65L70.39-4.65Q70.14-3.55 70.14-2.9L70.14-2.9Q70.14-1.7 70.74-1.7L70.74-1.7Q70.94-1.7 71.24-1.85L71.24-1.85Q72.34-2.4 73.44-3.45 74.54-4.5 75.54-5.6L75.54-5.6Q76.04-6.15 76.49-6.65 76.94-7.15 77.34-7.7L77.34-7.7Q77.49-7.85 77.59-7.85L77.59-7.85Q77.89-7.85 77.89-7.45L77.89-7.45Q77.89-7.15 77.69-6.95L77.69-6.95Q76.64-5.65 75.49-4.3L75.49-4.3Q74.39-3.05 73.19-1.85L73.19-1.85Q72.19-0.9 70.99-0.38 69.79 0.15 68.94 0.15ZM81.94 1.15L81.94 1.15Q80.04 1.15 77.94-0.4L77.94-0.4Q77.04-1.05 76.39-2.2L76.39-2.2Q76.04-2.8 76.04-3.5L76.04-3.5Q76.04-4.3 76.59-4.3L76.59-4.3Q76.84-4.3 77.21-3.88 77.59-3.45 77.89-2.8L77.89-2.8Q78.34-1.8 78.84-1.07 79.34-0.35 80.44-0.35L80.44-0.35Q81.44-0.35 82.09-1.5 82.74-2.65 83.11-4.45 83.49-6.25 83.66-8.25 83.84-10.25 83.89-11.93 83.94-13.6 83.99-14.5L83.99-14.5Q81.64-11.65 79.56-9.13 77.49-6.6 75.64-4.4L75.64-4.4Q75.44-4.15 75.29-4.15L75.29-4.15Q75.14-4.15 75.14-4.45L75.14-4.45Q75.14-5 75.39-5.35L75.39-5.35Q76.39-6.55 77.59-8.03 78.79-9.5 80.01-11 81.24-12.5 82.21-13.68 83.19-14.85 83.64-15.45L83.64-15.45Q83.64-16.95 84.34-17.82 85.04-18.7 86.04-19.1 87.04-19.5 87.94-19.5L87.94-19.5Q88.79-19.5 89.19-19.3L89.19-19.3Q89.54-19.15 89.54-18.95L89.54-18.95Q89.54-18.8 89.04-18.65L89.04-18.65Q87.84-18.35 87.34-17.38 86.84-16.4 86.71-15.03 86.59-13.65 86.59-12.1L86.59-12.1Q86.59-9.8 86.39-7.25 86.19-4.7 85.74-2.95L85.74-2.95Q85.64-2.6 85.46-2.2 85.29-1.8 85.14-1.4L85.14-1.4Q86.54-2.4 87.89-3.58 89.24-4.75 89.99-5.55L89.99-5.55Q90.54-6.1 90.96-6.63 91.39-7.15 91.84-7.7L91.84-7.7Q91.94-7.85 92.09-7.85L92.09-7.85Q92.39-7.85 92.39-7.45L92.39-7.45Q92.39-7.2 92.14-6.95L92.14-6.95Q91.09-5.7 90.01-4.3 88.94-2.9 87.64-1.85L87.64-1.85Q87.09-1.4 86.24-0.7 85.39 0 84.54 0.45L84.54 0.45Q83.14 1.15 81.94 1.15ZM100.54-19.75L100.54-19.75Q99.99-19.75 99.64-20.13 99.29-20.5 99.29-21L99.29-21Q99.29-21.75 99.81-22.28 100.34-22.8 100.99-22.8L100.99-22.8Q101.64-22.8 102.01-22.38 102.39-21.95 102.29-21.3L102.29-21.3Q102.14-20.65 101.66-20.2 101.19-19.75 100.54-19.75ZM93.69 0L93.69 0Q92.59 0 91.79-0.73 90.99-1.45 90.99-3.2L90.99-3.2Q90.99-3.95 91.14-4.85L91.14-4.85Q91.59-7.2 92.61-9.35 93.64-11.5 94.61-13.08 95.59-14.65 95.89-15.15L95.89-15.15Q96.14-15.65 97.19-16.13 98.24-16.6 98.94-16.6L98.94-16.6Q99.54-16.6 99.54-16.2L99.54-16.2Q99.54-15.85 99.29-15.55L99.29-15.55Q98.54-14.35 97.56-12.83 96.59-11.3 95.69-9.6 94.79-7.9 94.19-6.25 93.59-4.6 93.59-3.2L93.59-3.2Q93.59-2.45 93.86-2 94.14-1.55 94.89-1.55L94.89-1.55Q95.69-1.55 96.74-2.33 97.79-3.1 98.76-4.08 99.74-5.05 100.19-5.6L100.19-5.6Q100.69-6.15 101.16-6.65 101.64-7.15 102.04-7.7L102.04-7.7Q102.19-7.85 102.29-7.85L102.29-7.85Q102.59-7.85 102.59-7.4L102.59-7.4Q102.59-7.15 102.39-6.95L102.39-6.95Q101.84-6.3 101.29-5.63 100.74-4.95 100.14-4.3L100.14-4.3Q99.34-3.35 98.34-2.35 97.34-1.35 96.19-0.68 95.04 0 93.69 0ZM104.78 0.9L104.78 0.9Q102.78 0.9 102.06-0.18 101.33-1.25 101.33-2.75L101.33-2.75Q101.33-4.3 101.81-5.9 102.28-7.5 102.63-8.5L102.63-8.5Q103.43-10.6 104.53-12.78 105.63-14.95 106.78-16.98 107.93-19 108.78-20.55L108.78-20.55Q110.58-23.65 112.26-25.33 113.93-27 115.28-27.63 116.63-28.25 117.43-28.2L117.43-28.2Q116.13-26.8 114.41-24.2 112.68-21.6 110.78-18.28 108.88-14.95 107.03-11.3L107.03-11.3Q106.38-10.05 105.78-8.8 105.18-7.55 104.63-6.3L104.63-6.3Q104.23-5.4 103.88-4.2 103.53-3 103.53-2L103.53-2Q103.53-1.15 103.88-0.55 104.23 0.05 105.08 0.05L105.08 0.05Q106.13 0.05 107.33-0.88 108.53-1.8 109.58-3.2 110.63-4.6 111.36-6.1 112.08-7.6 112.13-8.75L112.13-8.75 112.18-9.4Q110.83-9.75 110.83-11.7L110.83-11.7Q110.83-12.85 111.31-13.7 111.78-14.55 112.38-14.55L112.38-14.55Q113.13-14.55 113.43-13.78 113.73-13 113.73-11.85L113.73-11.85Q113.73-11.25 113.66-10.6 113.58-9.95 113.48-9.3L113.48-9.3Q113.73-9.15 114.56-9.03 115.38-8.9 115.83-8.9L115.83-8.9Q117.58-8.9 118.83-10 120.08-11.1 121.18-12.55L121.18-12.55Q121.33-12.75 121.43-12.75L121.43-12.75Q121.58-12.75 121.63-12.55 121.68-12.35 121.68-12.1L121.68-12.1Q121.68-11.75 121.63-11.65L121.63-11.65Q120.48-9.95 119.08-8.95 117.68-7.95 115.83-7.95L115.83-7.95Q115.28-7.95 114.68-8.05 114.08-8.15 113.43-8.35L113.43-8.35Q113.28-7.8 113.11-7.28 112.93-6.75 112.83-6.35L112.83-6.35Q112.28-4.95 111.08-3.25 109.88-1.55 108.26-0.33 106.63 0.9 104.78 0.9ZM120.08 0.35L120.08 0.35Q118.23 0.35 117.31-0.85 116.38-2.05 116.38-3.9L116.38-3.9Q116.38-6 117.48-8.5L117.48-8.5Q118.48-10.75 120.06-12.6 121.63-14.45 123.48-15.58 125.33-16.7 127.03-16.7L127.03-16.7Q129.08-16.7 130.03-15.45 130.98-14.2 130.98-12.3L130.98-12.3Q130.98-10.25 129.93-7.9L129.93-7.9Q129.38-6.7 128.33-5.3 127.28-3.9 125.93-2.6 124.58-1.3 123.06-0.48 121.53 0.35 120.08 0.35ZM121.03-0.65L121.03-0.65Q122.08-0.65 123.13-1.38 124.18-2.1 125.13-3.15 126.08-4.2 126.81-5.28 127.53-6.35 127.88-7.1L127.88-7.1Q128.73-8.7 129.13-10.18 129.53-11.65 129.53-12.75L129.53-12.75Q129.53-15.15 127.73-15.15L127.73-15.15Q126.63-15.15 125.41-14.28 124.18-13.4 123.03-11.95 121.88-10.5 121.03-8.7L121.03-8.7Q119.23-5.1 119.23-2.85L119.23-2.85Q119.23-1.05 120.38-0.75L120.38-0.75Q120.53-0.7 120.68-0.68 120.83-0.65 121.03-0.65ZM133.88 0.6L133.88 0.6Q132.48 0.6 131.83-0.3 131.18-1.2 131.18-2.65L131.18-2.65Q131.18-4.15 131.8-6.03 132.43-7.9 133.5-9.83 134.58-11.75 135.93-13.33 137.28-14.9 138.68-15.75L138.68-15.75Q137.38-15.7 136-15.18 134.63-14.65 133.63-14.65L133.63-14.65Q132.78-14.65 132.23-15.33 131.68-16 131.68-16.5L131.68-16.5Q131.68-16.8 131.98-16.8L131.98-16.8Q132.18-16.8 132.53-16.6L132.53-16.6Q133.03-16.3 133.78-16.2 134.53-16.1 135.38-16.1L135.38-16.1Q136.53-16.1 137.6-16.23 138.68-16.35 139.23-16.4L139.23-16.4Q139.38-16.45 139.58-16.45 139.78-16.45 139.98-16.45L139.98-16.45Q140.53-16.45 140.95-16.35 141.38-16.25 141.38-15.95L141.38-15.95Q141.38-15.6 140.83-15.2L140.83-15.2Q140.13-14.7 138.95-13.3 137.78-11.9 136.55-10.05 135.33-8.2 134.43-6.3L134.43-6.3Q134.33-6 133.98-5.13 133.63-4.25 133.33-3.25 133.03-2.25 133.03-1.45L133.03-1.45Q133.03-0.25 133.88-0.25L133.88-0.25Q135.38-0.25 136.93-1.4 138.48-2.55 139.88-4.4 141.28-6.25 142.38-8.4 143.48-10.55 144.13-12.65 144.78-14.75 144.78-16.35L144.78-16.35Q144.78-17.2 144.73-17.9 144.68-18.6 144.48-19.25L144.48-19.25Q144.63-19.3 144.78-19.3 144.93-19.3 145.03-19.3L145.03-19.3Q146.18-19.3 146.7-18.25 147.23-17.2 147.23-15.9L147.23-15.9Q147.23-13.35 145.55-10.13 143.88-6.9 141.18-3.8L141.18-3.8Q140.28-2.85 139.15-1.83 138.03-0.8 136.73-0.1 135.43 0.6 133.88 0.6ZM148.13 0.2L148.13 0.2Q146.48 0.2 145.83-0.6 145.18-1.4 145.18-2.55L145.18-2.55Q145.18-4.05 145.9-5.75 146.63-7.45 147.18-8.4L147.18-8.4Q148.53-10.55 150.38-12.5 152.23-14.45 154.3-15.68 156.38-16.9 158.28-16.9L158.28-16.9Q159.28-16.9 160.23-16.57 161.18-16.25 162.08-15.5L162.08-15.5Q162.53-15.15 162.7-14.83 162.88-14.5 162.88-14.25L162.88-14.25Q162.88-13.5 162.23-13.5L162.23-13.5Q161.78-13.5 161.58-14.1L161.58-14.1Q160.93-15.8 159.48-15.8L159.48-15.8Q158.23-15.8 156.63-14.65 155.03-13.5 153.48-11.9L153.48-11.9Q151.78-10.1 150.38-8.03 148.98-5.95 148.28-4.25L148.28-4.25Q147.93-3.5 147.8-2.93 147.68-2.35 147.68-1.95L147.68-1.95Q147.68-1.05 148.43-1.05L148.43-1.05Q149.28-1.05 150.93-2.3L150.93-2.3Q152.13-3.25 153.4-4.6 154.68-5.95 155.78-7.28 156.88-8.6 157.53-9.35L157.53-9.35Q157.78-9.75 158-10.1 158.23-10.45 158.43-10.7L158.43-10.7Q158.63-10.95 159.1-11.1 159.58-11.25 160.08-11.25L160.08-11.25Q160.68-11.25 161.08-11.05 161.48-10.85 161.23-10.35L161.23-10.35Q161.23-10.3 160.68-9.33 160.13-8.35 159.4-7 158.68-5.65 158.13-4.4L158.13-4.4Q157.83-3.7 157.63-3.1 157.43-2.5 157.43-2.1L157.43-2.1Q157.43-1.45 157.93-1.45L157.93-1.45Q158.28-1.45 158.98-1.85L158.98-1.85Q160.08-2.4 161.2-3.45 162.33-4.5 163.28-5.6L163.28-5.6Q163.83-6.15 164.28-6.65 164.73-7.15 165.13-7.7L165.13-7.7Q165.28-7.85 165.38-7.85L165.38-7.85Q165.68-7.85 165.68-7.4L165.68-7.4Q165.68-7.15 165.48-6.95L165.48-6.95Q164.93-6.3 164.38-5.63 163.83-4.95 163.23-4.3L163.23-4.3Q162.68-3.65 162.1-3.03 161.53-2.4 160.93-1.85L160.93-1.85Q158.78 0.15 156.98 0.15L156.98 0.15Q156.18 0.15 155.63-0.43 155.08-1 155.08-2.25L155.08-2.25Q155.08-3.2 155.43-4.4L155.43-4.4Q155.53-4.95 155.75-5.5 155.98-6.05 156.18-6.65L156.18-6.65Q155.18-5.05 153.9-3.48 152.63-1.9 151.18-0.85 149.73 0.2 148.13 0.2Z" opacity="1" transform="matrix(1,0,0,1,0,0)" fill="#2ea673" class="wordmark-text-0" data-fill-palette-color="primary" id="text-0"></path></svg></g></svg></g></svg></g></svg></g></svg></g></svg></g></svg></g></svg></g><defs></defs></svg><rect width="375.07953" height="165.09377" fill="none" stroke="none" visibility="hidden"></rect></g></svg></g></svg>